<svg xmlns="http://www.w3.org/2000/svg" xmlns:xlink="http://www.w3.org/1999/xlink" width="990" height="541.6000061035156" viewBox="-20 -20 990 541.6000061035156"><defs><marker id="arrow" viewBox="0 -5 10 10" refX="9" refY="0" markerWidth="12" markerHeight="12" orient="auto-start-reverse" markerUnits="userSpaceOnUse"><path d="M0,-5L10,0L0,5" fill="#156082"/></marker></defs><g transform="translate(162.28447594839304,90.51897562814491) scale(0.6597539553864468)"><g class="links"><line class="link link-line" stroke="#A6A6A6" stroke-width="2.8243455087004232" marker-end="url(#arrow)" x1="250" y1="360" x2="176" y2="360"/><line class="link link-line" stroke="#A6A6A6" stroke-width="2.0474212258974758" marker-end="url(#arrow)" x1="50" y1="200" x2="50" y2="494"/><line class="link link-line" stroke="#A6A6A6" stroke-width="1.9931023671421855" marker-end="url(#arrow)" x1="350" y1="40" x2="350" y2="174"/><line class="link link-line" stroke="#A6A6A6" stroke-width="1.796127919736636" marker-end="url(#arrow)" x1="350" y1="360" x2="276" y2="360"/><line class="link link-line" stroke="#A6A6A6" stroke-width="1.768694152688509" marker-end="url(#arrow)" x1="450" y1="200" x2="376" y2="200"/><line class="link link-line" stroke="#A6A6A6" stroke-width="1.6638971625646652" marker-end="url(#arrow)" x1="350" y1="40" x2="276" y2="40"/><line class="link link-line" stroke="#A6A6A6" stroke-width="1.6567643831321526" marker-end="url(#arrow)" x1="250" y1="520" x2="324" y2="520"/><line class="link link-line" stroke="#A6A6A6" stroke-width="1.5256309766421068" marker-end="url(#arrow)" x1="50" y1="520" x2="124" y2="520"/><line class="link link-line" stroke="#A6A6A6" stroke-width="1.2913466060511054" marker-end="url(#arrow)" x1="-50" y1="200" x2="24" y2="200"/><line class="link link-line" stroke="#A6A6A6" stroke-width="1.2255055651356013" marker-end="url(#arrow)" x1="150" y1="520" x2="224" y2="520"/><line class="link link-line" stroke="#A6A6A6" stroke-width="1.1887443172911114" marker-end="url(#arrow)" x1="550" y1="200" x2="476" y2="200"/><line class="link link-line" stroke="#A6A6A6" stroke-width="1.1717353817212728" marker-end="url(#arrow)" x1="350" y1="360" x2="350" y2="226"/><line class="link link-line" stroke="#A6A6A6" stroke-width="1.1355228092177456" marker-end="url(#arrow)" x1="450" y1="360" x2="450" y2="226"/><line class="link link-line" stroke="#A6A6A6" stroke-width="1.1355228092177456" marker-end="url(#arrow)" x1="550" y1="40" x2="463.7799724400827" y2="177.9520440958677"/><line class="link link-line" stroke="#A6A6A6" stroke-width="1.1058943408057689" marker-end="url(#arrow)" x1="550" y1="40" x2="550" y2="174"/><line class="link link-line" stroke="#A6A6A6" stroke-width="1.0707791189841667" marker-end="url(#arrow)" x1="50" y1="200" x2="-24" y2="200"/><line class="link link-line" stroke="#A6A6A6" stroke-width="1.0537701834143283" marker-end="url(#arrow)" x1="50" y1="200" x2="324" y2="200"/><line class="link link-line" stroke="#A6A6A6" stroke-width="1.0356638971625647" marker-end="url(#arrow)" x1="450" y1="520" x2="450" y2="386"/><line class="link link-line" stroke="#A6A6A6" stroke-width="1.0290797930710143" marker-end="url(#arrow)" x1="450" y1="520" x2="376" y2="520"/><line class="link link-line" stroke="#A6A6A6" stroke-width="1.0235930396613888" marker-end="url(#arrow)" x1="550" y1="200" x2="463.7799724400827" y2="337.95204409586773"/><line class="link link-line" stroke="#A6A6A6" stroke-width="1" marker-end="url(#arrow)" x1="350" y1="200" x2="76" y2="200"/></g><g class="self-links"><path class="link self-link-path" fill="none" stroke="#A6A6A6" stroke-width="8" marker-end="url(#arrow)" d="M -62.49999999999999 178.34936490538902 C -86 136.5, -14 136.5, -36.433540988851675 179.0011621774244"/><path class="link self-link-path" fill="none" stroke="#A6A6A6" stroke-width="5.3142342059884" marker-end="url(#arrow)" d="M 137.5 18.34936490538903 C 114 -23.5, 186 -23.5, 163.56645901114834 19.00116217742438"/><path class="link self-link-path" fill="none" stroke="#A6A6A6" stroke-width="5.2560746198463715" marker-end="url(#arrow)" d="M 37.50000000000001 18.34936490538903 C 14 -23.5, 86 -23.5, 63.566459011148325 19.00116217742438"/><path class="link self-link-path" fill="none" stroke="#A6A6A6" stroke-width="3.8256780059570468" marker-end="url(#arrow)" d="M 237.5 338.34936490538905 C 214 296.5, 286 296.5, 263.5664590111483 339.00116217742436"/><path class="link self-link-path" fill="none" stroke="#A6A6A6" stroke-width="1.86635836337984" marker-end="url(#arrow)" d="M 37.50000000000001 178.34936490538902 C 14 136.5, 86 136.5, 63.566459011148325 179.0011621774244"/><path class="link self-link-path" fill="none" stroke="#A6A6A6" stroke-width="1.7390656842765324" marker-end="url(#arrow)" d="M 337.5 18.34936490538903 C 314 -23.5, 386 -23.5, 363.5664590111483 19.00116217742438"/><path class="link self-link-path" fill="none" stroke="#A6A6A6" stroke-width="1.0027433767048126" marker-end="url(#arrow)" d="M 137.5 498.34936490538905 C 114 456.5, 186 456.5, 163.56645901114834 499.00116217742436"/></g><g class="link-labels"><text class="link-label" fill="black" style="font-size: 12px;" x="-50" y="130">14.72</text><text class="link-label" fill="black" style="font-size: 12px;" x="150" y="-30">9.83</text><text class="link-label" fill="black" style="font-size: 12px;" x="50" y="-30">9.72</text><text class="link-label" fill="black" style="font-size: 12px;" x="250" y="290">7.12</text><text class="link-label" fill="black" style="font-size: 12px;" x="200" y="354">5.29</text><text class="link-label" fill="black" style="font-size: 12px;" x="50" y="366">3.88</text><text class="link-label" fill="black" style="font-size: 12px;" x="350" y="126">3.78</text><text class="link-label" fill="black" style="font-size: 12px;" x="50" y="130">3.55</text><text class="link-label" fill="black" style="font-size: 12px;" x="300" y="354">3.42</text><text class="link-label" fill="black" style="font-size: 12px;" x="400" y="194">3.37</text><text class="link-label" fill="black" style="font-size: 12px;" x="350" y="-30">3.31</text><text class="link-label" fill="black" style="font-size: 12px;" x="300" y="34">3.18</text><text class="link-label" fill="black" style="font-size: 12px;" x="300" y="514">3.16</text><text class="link-label" fill="black" style="font-size: 12px;" x="100" y="514">2.92</text><text class="link-label" fill="black" style="font-size: 12px;" x="0" y="194">2.50</text><text class="link-label" fill="black" style="font-size: 12px;" x="200" y="514">2.38</text><text class="link-label" fill="black" style="font-size: 12px;" x="500" y="194">2.31</text><text class="link-label" fill="black" style="font-size: 12px;" x="350" y="286">2.28</text><text class="link-label" fill="black" style="font-size: 12px;" x="450" y="286">2.21</text><text class="link-label" fill="black" style="font-size: 12px;" x="500" y="120">2.21</text><text class="link-label" fill="black" style="font-size: 12px;" x="550" y="126">2.16</text><text class="link-label" fill="black" style="font-size: 12px;" x="0" y="194">2.10</text><text class="link-label" fill="black" style="font-size: 12px;" x="200" y="194">2.06</text><text class="link-label" fill="black" style="font-size: 12px;" x="450" y="446">2.03</text><text class="link-label" fill="black" style="font-size: 12px;" x="400" y="514">2.02</text><text class="link-label" fill="black" style="font-size: 12px;" x="500" y="280">2.01</text><text class="link-label" fill="black" style="font-size: 12px;" x="150" y="450">1.97</text><text class="link-label" fill="black" style="font-size: 12px;" x="200" y="194">1.97</text></g><g class="nodes"><g class="node" transform="translate(-50,200)"><circle r="25" fill="white" stroke="black"/><text dy=".35em" text-anchor="middle" fill="black">C2</text></g><g class="node" transform="translate(150,40)"><circle r="25" fill="white" stroke="black"/><text dy=".35em" text-anchor="middle" fill="black">B1</text></g><g class="node" transform="translate(50,40)"><circle r="25" fill="white" stroke="black"/><text dy=".35em" text-anchor="middle" fill="black">B2</text></g><g class="node" transform="translate(250,360)"><circle r="25" fill="white" stroke="black"/><text dy=".35em" text-anchor="middle" fill="black">D2</text></g><g class="node" transform="translate(150,360)"><circle r="25" fill="white" stroke="black"/><text dy=".35em" text-anchor="middle" fill="black">F2</text></g><g class="node" transform="translate(50,200)"><circle r="25" fill="white" stroke="black"/><text dy=".35em" text-anchor="middle" fill="black">E1</text></g><g class="node" transform="translate(50,520)"><circle r="25" fill="white" stroke="black"/><text dy=".35em" text-anchor="middle" fill="black">H1</text></g><g class="node" transform="translate(350,40)"><circle r="25" fill="white" stroke="black"/><text dy=".35em" text-anchor="middle" fill="black">F1</text></g><g class="node" transform="translate(350,200)"><circle r="25" fill="white" stroke="black"/><text dy=".35em" text-anchor="middle" fill="black">I2</text></g><g class="node" transform="translate(350,360)"><circle r="25" fill="white" stroke="black"/><text dy=".35em" text-anchor="middle" fill="black">C1</text></g><g class="node" transform="translate(450,200)"><circle r="25" fill="white" stroke="black"/><text dy=".35em" text-anchor="middle" fill="black">A1</text></g><g class="node" transform="translate(250,40)"><circle r="25" fill="white" stroke="black"/><text dy=".35em" text-anchor="middle" fill="black">E3</text></g><g class="node" transform="translate(250,520)"><circle r="25" fill="white" stroke="black"/><text dy=".35em" text-anchor="middle" fill="black">G2</text></g><g class="node" transform="translate(350,520)"><circle r="25" fill="white" stroke="black"/><text dy=".35em" text-anchor="middle" fill="black">I1</text></g><g class="node" transform="translate(150,520)"><circle r="25" fill="white" stroke="black"/><text dy=".35em" text-anchor="middle" fill="black">H2</text></g><g class="node" transform="translate(550,200)"><circle r="25" fill="white" stroke="black"/><text dy=".35em" text-anchor="middle" fill="black">A2</text></g><g class="node" transform="translate(450,360)"><circle r="25" fill="white" stroke="black"/><text dy=".35em" text-anchor="middle" fill="black">D1</text></g><g class="node" transform="translate(550,40)"><circle r="25" fill="white" stroke="black"/><text dy=".35em" text-anchor="middle" fill="black">E2</text></g><g class="node" transform="translate(450,520)"><circle r="25" fill="white" stroke="black"/><text dy=".35em" text-anchor="middle" fill="black">G1</text></g></g></g></svg>